<?xml version="1.0" encoding="utf-8"?>
<!-- Generator: Adobe Illustrator 26.1.0, SVG Export Plug-In . SVG Version: 6.00 Build 0)  -->
<svg version="1.1" id="Layer_1" xmlns="http://www.w3.org/2000/svg" xmlns:xlink="http://www.w3.org/1999/xlink" x="0px" y="0px"
	 viewBox="0 0 800 800" style="enable-background:new 0 0 800 800;" xml:space="preserve">
<style type="text/css">
	.st0{fill:#FFFFFF;}
	.st1{fill:#FFFFFF;stroke:#000000;stroke-width:32;stroke-miterlimit:80;}
</style>
<g>
	<path class="st0" d="M407.1,336c69.5-6,117.5-68.4,108.7-128.8c-7.5-51.3-54.8-93.3-113-95.1c-27,3.4-54,6.9-81,10.3
		c-9.2,3.5-22.3,9.7-35.3,20.6c-22.2,18.7-19.2,30.3-40.2,52.2c-20.1,20.9-30,17.8-57.6,42.4c-15.5,13.8-26.2,27.2-32.6,35.9
		c-1.1,3.7-8.9,32.5,9.8,59.2c18.5,26.3,47.7,29,51.6,29.3c4.1,9.3,11,20.6,21.7,22.8c17.2,3.6,32.3-18.3,48.9-31.5
		C307.8,337.7,342.4,324.3,407.1,336z"/>
	<g>
		<path class="st1" d="M596.5,703.5c0,17.6-14.4,32-32,32h-352c-17.6,0-32-14.4-32-32l0,0c0-17.6,14.4-32,32-32h352
			C582.1,671.5,596.5,685.9,596.5,703.5L596.5,703.5z"/>
	</g>
	<path class="st1" d="M563.4,371.3c-27.8,66.5-62.9,150.6-62.9,252.2h-224l-16-176c57.4,0,104-46.6,104-104"/>
	<g>
		<path class="st1" d="M556.5,647.5c0,13.2-10.8,24-24,24h-288c-13.2,0-24-10.8-24-24l0,0c0-13.2,10.8-24,24-24h288
			C545.7,623.5,556.5,634.3,556.5,647.5L556.5,647.5z"/>
	</g>
	<line class="st1" x1="204.5" y1="351.5" x2="244.5" y2="319.5"/>
	<line class="st1" x1="316.5" y1="183.5" x2="356.5" y2="159.5"/>
	<line class="st1" x1="180.5" y1="303.5" x2="204.5" y2="287.5"/>
	<path class="st1" d="M404.5,151.5v-7.3V71.5c106,0,192,86,192,192s-86,192-192,192"/>
	<path class="st1" d="M148.5,295.5c0-65.9,128-113.4,128-128c0-30.9,25.1-56,56-56h72"/>
	<path class="st1" d="M148.5,295.5c0,30.9,25.1,56,56,56"/>
	<path class="st1" d="M212.5,351.5c0,17.7,14.3,32,32,32s32-14.3,32-32l56-24c20.3,20.3,53.2,20.3,73.5,0s20.3-53.2,0-73.5"/>
</g>
</svg>
