<?xml version="1.0" encoding="utf-8"?>
<!-- Generator: Adobe Illustrator 26.1.0, SVG Export Plug-In . SVG Version: 6.00 Build 0) -->
<svg version="1.1" id="role_mafia" xmlns="http://www.w3.org/2000/svg" xmlns:xlink="http://www.w3.org/1999/xlink" x="0px"
	 y="0px" viewBox="0 0 1500 1500" style="enable-background:new 0 0 1500 1500;" xml:space="preserve" xmlns:c2pa="http://c2pa.org/manifest"><metadata><c2pa:manifest>AAAWgmp1bWIAAAAeanVtZGMycGEAEQAQgAAAqgA4m3EDYzJwYQAAABZcanVtYgAAAEdqdW1kYzJtYQARABCAAACqADibcQN1cm46YzJwYTo2YjIxZWQ0ZS03MWFmLTRhNzktYjk2ZC1jNmUyMDhhYjhjYjQAAAADl2p1bWIAAAApanVtZGMyYXMAEQAQgAAAqgA4m3EDYzJwYS5hc3NlcnRpb25zAAAAALxqdW1iAAAARGp1bWRjYm9yABEAEIAAAKoAOJtxE2MycGEuaW5ncmVkaWVudC52MwAAAAAYYzJzaJxOyLI7HnB+EmYpcuo3XsoAAABwY2JvcqNpZGM6Zm9ybWF0bWltYWdlL3N2Zyt4bWxqaW5zdGFuY2VJRHgseG1wOmlpZDpiN2NlZTIzMy03YzQwLTRiYWYtOWMyMS01ZWNhOGNhYTEzNTlscmVsYXRpb25zaGlwaHBhcmVudE9mAAAB4mp1bWIAAABBanVtZGNib3IAEQAQgAAAqgA4m3ETYzJwYS5hY3Rpb25zLnYyAAAAABhjMnNoNltrbkxhTXx1iHD2L36O7gAAAZljYm9yomdhY3Rpb25zgqJmYWN0aW9ua2MycGEub3BlbmVkanBhcmFtZXRlcnOha2luZ3JlZGllbnRzgaJjdXJseC1zZWxmI2p1bWJmPWMycGEuYXNzZXJ0aW9ucy9jMnBhLmluZ3JlZGllbnQudjNkaGFzaFggirFUc6pt0Y37YXIlcl13/aSfheEIRzmfzxJSY+4lozmkZmFjdGlvbngdY29tLmFudGhyb3BpYy5jbGF1ZGUucHJvdmlkZWRqcGFyYW1ldGVyc6F4H2NvbS5hbnRocm9waWMub3JpZ2luLWNvbmZpZGVuY2VndW5rbm93bmtkZXNjcmlwdGlvbnhmQ2xhdWRlIHByb3ZpZGVkIHRoaXMgZmlsZSBhdCB0aGUgcmVxdWVzdCBvZiBhIHVzZXIgYW5kIG1heSBoYXZlIGNyZWF0ZWQgb3IgbW9kaWZpZWQgdGhlIGZpbGUgY29udGVudHMubXNvZnR3YXJlQWdlbnShZG5hbWVmQ2xhdWRlcmFsbEFjdGlvbnNJbmNsdWRlZPUAAADIanVtYgAAAEBqdW1kY2JvcgARABCAAACqADibcRNjMnBhLmhhc2guZGF0YQAAAAAYYzJzaDHA4Sc0tsHcd/t2QNxkfHIAAACAY2JvcqVjYWxnZnNoYTI1NmNwYWRMAAAAAAAAAAAAAAAAZGhhc2hYIHwWPInStyc7F3AiO7sKYm9naXc90bbS4hGV55YxL8SaZG5hbWVuanVtYmYgbWFuaWZlc3RqZXhjbHVzaW9uc4GiZXN0YXJ0GQGhZmxlbmd0aBkeBAAAAj5qdW1iAAAAJ2p1bWRjMmNsABEAEIAAAKoAOJtxA2MycGEuY2xhaW0udjIAAAACD2Nib3KlY2FsZ2ZzaGEyNTZpc2lnbmF0dXJleE1zZWxmI2p1bWJmPS9jMnBhL3VybjpjMnBhOjZiMjFlZDRlLTcxYWYtNGE3OS1iOTZkLWM2ZTIwOGFiOGNiNC9jMnBhLnNpZ25hdHVyZWppbnN0YW5jZUlEeCx4bXA6aWlkOjhiOGZhODU0LTA1NTUtNDljMi1iMThiLTM2MDExYWRhYzc0M3JjcmVhdGVkX2Fzc2VydGlvbnODomN1cmx4LXNlbGYjanVtYmY9YzJwYS5hc3NlcnRpb25zL2MycGEuaW5ncmVkaWVudC52M2RoYXNoWCCKsVRzqm3RjfthciVyXXf9pJ+F4QhHOZ/PElJj7iWjOaJjdXJseCpzZWxmI2p1bWJmPWMycGEuYXNzZXJ0aW9ucy9jMnBhLmFjdGlvbnMudjJkaGFzaFggdm2TtQ/Fiyue0LHcJNUubjXUZ+WS8DJ8hHpaPJzPD9qiY3VybHgpc2VsZiNqdW1iZj1jMnBhLmFzc2VydGlvbnMvYzJwYS5oYXNoLmRhdGFkaGFzaFggYrS3323oYI9eHAO21uNtGrg5LtQhKC9LERUvqCw4Ha50Y2xhaW1fZ2VuZXJhdG9yX2luZm+jZG5hbWVvQW50aHJvcGljIEZpbGVzZ3ZlcnNpb25lMS4wLjBrc3BlY1ZlcnNpb25lMi40LjAAABA4anVtYgAAAChqdW1kYzJjcwARABCAAACqADibcQNjMnBhLnNpZ25hdHVyZQAAABAIY2JvctKEWQISogEmGCFZAgowggIGMIIBjaADAgECAhRA5aAK7sI50L64g/oGQgU9Z1UTADAKBggqhkjOPQQDAzBJMRcwFQYDVQQKEw5BbnRocm9waWMsIFBCQzEuMCwGA1UEAxMlQW50aHJvcGljIENvbnRlbnQgQ3JlZGVudGlhbHMgUm9vdCBDQTAeFw0yNjA4MDcxODQzNTZaFw0yODA4MDYxOTQzNTZaMEQxFzAVBgNVBAoTDkFudGhyb3BpYywgUEJDMSkwJwYDVQQDEyBBbnRocm9waWMgQ2xhdWRlIENvbnRlbnQgU2lnbmluZzBZMBMGByqGSM49AgEGCCqGSM49AwEHA0IABJh6CmvLUBgFFNU0vUKlOVtE6djd17L5SuwX0LemFisBM3dkd/3cyjxFA3Qo5S46fX0/ihY0VZ7mfb9KF703t5OjWDBWMA4GA1UdDwEB/wQEAwIHgDAVBgNVHSUEDjAMBgorBgEEAYPoXgIBMAwGA1UdEwEB/wQCMAAwHwYDVR0jBBgwFoAUzlHiBIFOZFsj+OPEz5o+nMHXXMIwCgYIKoZIzj0EAwMDZwAwZAIwMXMdFJ4BetLLVY7ORuE9noqbbAZOZn/aArXyTwFAZfKrPzxF2vPoJNf1+UCdg1XGAjBwX1zd9WGqYkqmL5SFqw1QySjr1zJfpJM9+1rdDwSPLMOPOjKuiXjoU/pUUeG9RwmhY3BhZFkNngAAAAAAAAAAAAAAAAAAAAAAAAAAAAAAAAAAAAAAAAAAAAAAAAAAAAAAAAAAAAAAAAAAAAAAAAAAAAAAAAAAAAAAAAAAAAAAAAAAAAAAAAAAAAAAAAAAAAAAAAAAAAAAAAAAAAAAAAAAAAAAAAAAAAAAAAAAAAAAAAAAAAAAAAAAAAAAAAAAAAAAAAAAAAAAAAAAAAAAAAAAAAAAAAAAAAAAAAAAAAAAAAAAAAAAAAAAAAAAAAAAAAAAAAAAAAAAAAAAAAAAAAAAAAAAAAAAAAAAAAAAAAAAAAAAAAAAAAAAAAAAAAAAAAAAAAAAAAAAAAAAAAAAAAAAAAAAAAAAAAAAAAAAAAAAAAAAAAAAAAAAAAAAAAAAAAAAAAAAAAAAAAAAAAAAAAAAAAAAAAAAAAAAAAAAAAAAAAAAAAAAAAAAAAAAAAAAAAAAAAAAAAAAAAAAAAAAAAAAAAAAAAAAAAAAAAAAAAAAAAAAAAAAAAAAAAAAAAAAAAAAAAAAAAAAAAAAAAAAAAAAAAAAAAAAAAAAAAAAAAAAAAAAAAAAAAAAAAAAAAAAAAAAAAAAAAAAAAAAAAAAAAAAAAAAAAAAAAAAAAAAAAAAAAAAAAAAAAAAAAAAAAAAAAAAAAAAAAAAAAAAAAAAAAAAAAAAAAAAAAAAAAAAAAAAAAAAAAAAAAAAAAAAAAAAAAAAAAAAAAAAAAAAAAAAAAAAAAAAAAAAAAAAAAAAAAAAAAAAAAAAAAAAAAAAAAAAAAAAAAAAAAAAAAAAAAAAAAAAAAAAAAAAAAAAAAAAAAAAAAAAAAAAAAAAAAAAAAAAAAAAAAAAAAAAAAAAAAAAAAAAAAAAAAAAAAAAAAAAAAAAAAAAAAAAAAAAAAAAAAAAAAAAAAAAAAAAAAAAAAAAAAAAAAAAAAAAAAAAAAAAAAAAAAAAAAAAAAAAAAAAAAAAAAAAAAAAAAAAAAAAAAAAAAAAAAAAAAAAAAAAAAAAAAAAAAAAAAAAAAAAAAAAAAAAAAAAAAAAAAAAAAAAAAAAAAAAAAAAAAAAAAAAAAAAAAAAAAAAAAAAAAAAAAAAAAAAAAAAAAAAAAAAAAAAAAAAAAAAAAAAAAAAAAAAAAAAAAAAAAAAAAAAAAAAAAAAAAAAAAAAAAAAAAAAAAAAAAAAAAAAAAAAAAAAAAAAAAAAAAAAAAAAAAAAAAAAAAAAAAAAAAAAAAAAAAAAAAAAAAAAAAAAAAAAAAAAAAAAAAAAAAAAAAAAAAAAAAAAAAAAAAAAAAAAAAAAAAAAAAAAAAAAAAAAAAAAAAAAAAAAAAAAAAAAAAAAAAAAAAAAAAAAAAAAAAAAAAAAAAAAAAAAAAAAAAAAAAAAAAAAAAAAAAAAAAAAAAAAAAAAAAAAAAAAAAAAAAAAAAAAAAAAAAAAAAAAAAAAAAAAAAAAAAAAAAAAAAAAAAAAAAAAAAAAAAAAAAAAAAAAAAAAAAAAAAAAAAAAAAAAAAAAAAAAAAAAAAAAAAAAAAAAAAAAAAAAAAAAAAAAAAAAAAAAAAAAAAAAAAAAAAAAAAAAAAAAAAAAAAAAAAAAAAAAAAAAAAAAAAAAAAAAAAAAAAAAAAAAAAAAAAAAAAAAAAAAAAAAAAAAAAAAAAAAAAAAAAAAAAAAAAAAAAAAAAAAAAAAAAAAAAAAAAAAAAAAAAAAAAAAAAAAAAAAAAAAAAAAAAAAAAAAAAAAAAAAAAAAAAAAAAAAAAAAAAAAAAAAAAAAAAAAAAAAAAAAAAAAAAAAAAAAAAAAAAAAAAAAAAAAAAAAAAAAAAAAAAAAAAAAAAAAAAAAAAAAAAAAAAAAAAAAAAAAAAAAAAAAAAAAAAAAAAAAAAAAAAAAAAAAAAAAAAAAAAAAAAAAAAAAAAAAAAAAAAAAAAAAAAAAAAAAAAAAAAAAAAAAAAAAAAAAAAAAAAAAAAAAAAAAAAAAAAAAAAAAAAAAAAAAAAAAAAAAAAAAAAAAAAAAAAAAAAAAAAAAAAAAAAAAAAAAAAAAAAAAAAAAAAAAAAAAAAAAAAAAAAAAAAAAAAAAAAAAAAAAAAAAAAAAAAAAAAAAAAAAAAAAAAAAAAAAAAAAAAAAAAAAAAAAAAAAAAAAAAAAAAAAAAAAAAAAAAAAAAAAAAAAAAAAAAAAAAAAAAAAAAAAAAAAAAAAAAAAAAAAAAAAAAAAAAAAAAAAAAAAAAAAAAAAAAAAAAAAAAAAAAAAAAAAAAAAAAAAAAAAAAAAAAAAAAAAAAAAAAAAAAAAAAAAAAAAAAAAAAAAAAAAAAAAAAAAAAAAAAAAAAAAAAAAAAAAAAAAAAAAAAAAAAAAAAAAAAAAAAAAAAAAAAAAAAAAAAAAAAAAAAAAAAAAAAAAAAAAAAAAAAAAAAAAAAAAAAAAAAAAAAAAAAAAAAAAAAAAAAAAAAAAAAAAAAAAAAAAAAAAAAAAAAAAAAAAAAAAAAAAAAAAAAAAAAAAAAAAAAAAAAAAAAAAAAAAAAAAAAAAAAAAAAAAAAAAAAAAAAAAAAAAAAAAAAAAAAAAAAAAAAAAAAAAAAAAAAAAAAAAAAAAAAAAAAAAAAAAAAAAAAAAAAAAAAAAAAAAAAAAAAAAAAAAAAAAAAAAAAAAAAAAAAAAAAAAAAAAAAAAAAAAAAAAAAAAAAAAAAAAAAAAAAAAAAAAAAAAAAAAAAAAAAAAAAAAAAAAAAAAAAAAAAAAAAAAAAAAAAAAAAAAAAAAAAAAAAAAAAAAAAAAAAAAAAAAAAAAAAAAAAAAAAAAAAAAAAAAAAAAAAAAAAAAAAAAAAAAAAAAAAAAAAAAAAAAAAAAAAAAAAAAAAAAAAAAAAAAAAAAAAAAAAAAAAAAAAAAAAAAAAAAAAAAAAAAAAAAAAAAAAAAAAAAAAAAAAAAAAAAAAAAAAAAAAAAAAAAAAAAAAAAAAAAAAAAAAAAAAAAAAAAAAAAAAAAAAAAAAAAAAAAAAAAAAAAAAAAAAAAAAAAAAAAAAAAAAAAAAAAAAAAAAAAAAAAAAAAAAAAAAAAAAAAAAAAAAAAAAAAAAAAAAAAAAAAAAAAAAAAAAAAAAAAAAAAAAAAAAAAAAAAAAAAAAAAAAAAAAAAAAAAAAAAAAAAAAAAAAAAAAAAAAAAAAAAAAAAAAAAAAAAAAAAAAAAAAAAAAAAAAAAAAAAAAAAAAAAAAAAAAAAAAAAAAAAAAAAAAAAAAAAAAAAAAAAAAAAAAAAAAAAAAAAAAAAAAAAAAAAAAAAAAAAAAAAAAAAAAAAAAAAAAAAAAAAAAAAAAAAAAAAAAAAAAAAAAAAAAAAAAAAAAAAAAAAAAAAAAAAAAAAAAAAAAAAAAAAAAAAAAAAAAAAAAAAAAAAAAAAAAAAAAAAAAAAAAAAAAAAAAAAAAAAAAAAAAAAAAAAAAAAAAAAAAAAAAAAAAAAAAAAAAAAAAAAAAAAAAAAAAAAAAAAAAAAAAAAAAAAAAAAAAAAAAAAAAAAAAAAAAAAAAAAAAAAAAAAAAAAAAAAAAAAAAAAAAAAAAAAAAAAAAAAAAAAAAAAAAAAAAAAAAAAAAAAAAAAAAAAAAAAAAAAAAAAAAAAAAAAAAAAAAAAAAAAAAAAAAAAAAAAAAAAAAAAAAAAAAAAAAAAAAAAAAAAAAAAAAAAAAAAAAAAAAAAAAAAAAAAAAAAAAAAAAAAAAAAAAAAAAAAAAAAAAAAAAAAAAAAAAAAAAAAAAAAAAAAAAAAAAAAAAAAAAAAAAAAAAAAAAAAAAAAAAAAAAAAAAAAAAAAAAAAAAAAAAAAAAAAAAAAAAAAAAAAAAAAAAAAAAAAAAAAAAAAAAAAAAAAAAAAAAAAAAAAAAAAAAAAAAAAAAAAAAAAAAAAAAAAAAAAAAAAAAAAAAAAAAAAAAAAAAAAAAAAAAAAAAAAAAAAAAAAAAAAAAAAAAAAAAAAAAAAAAAAAAAAAAAAAAAAAAAAAAAAAAAAAAAAAAAAAAAAAAAAAAAAAAAAAAAAAAAAAAAAAAAAAAAAAAAAAAAAAAAAAAAAAAAAAAAAAAAAAAAAAAAAAAAAAAAAAAAAAAAAAAAAAAAAAAAAAAAAAAAAAAAAAAAAAAAAAAAAAAAAAAAAAAAAAAAAAAAAAAAAAAAAAAAAAAAAAAAAAAAAAAAAAAAAAAAAAAAAAAAAAAAAAAAAAAAAAAAAAAAAAAAAAAAAAAAAAAAAAAAAAAAAAAAAAAAAAAAAAAAAAAAAAAAAAAAAAAAAAAAAAAAAAAAAAAAAAAAAAAAAAAAAAAAAAAAAAAAAAAAAAAAAAAAAAAAAAAAAAAAAAAAAAAAAAAAAAAAAAAAAAAAAAAAAAAAAAAAAAAAAAAAAAAAAAAAAAAAAAAAAAAAAAAAAAAAAAAAAAAAAAAAAAAAAAAAAAAAAAAAAAAAAAAAAAAAAAAAAAAAAAAAAAAAAAAAAAAAAAAAAAAAAAAAAAAAAAAAAAAAAAAAAAAAAAAAAAAAAAAAAAAAAAAAAAAAAAAAAAAAAAAAAAAAAAAAAAAAAAAAAAAAAAAAAAAAAAAAAAAAAAAAAAAAAAAAAAAAAAAAAAAAAAAAAAAAAAAAAAAAAAAAAAAAAAAAAAAAAAAAAAAAAAAAAAAAAAAAAAAAAAAAAAAAAAAAAAAAAAAAAAAAAAAAAAAAAAAAAAAAAAPZYQKQTk7z+yaUxBP8dG+cJs7z3Wrk9GtVBXIqf2Uz8fOEPhr3w0XzQODRPiUuSw+pvc7eam/fN/O9Z7WIHRn3FJlY=</c2pa:manifest></metadata>
<style type="text/css">
	.st0{fill:#E5CFAE;stroke:#000000;stroke-width:2;stroke-miterlimit:10;}
	.st1{display:none;fill:#FFFFEF;stroke:#000000;stroke-miterlimit:10;}
	.st2{fill:none;stroke:#000000;stroke-width:3;stroke-linejoin:round;stroke-miterlimit:10;}
	.st3{fill:#FFFFEF;}
	.st4{fill:none;}
	.st5{display:none;fill:#FF0000;}
	.st6{font-family:'Candara';}
	.st7{font-size:71px;}
	.st8{display:none;fill:none;stroke:#FF0000;stroke-width:3;stroke-miterlimit:10;}
	.st9{fill:#F9F9F9;}
	.st10{stroke:#000000;stroke-width:27;stroke-miterlimit:10;}
	.st11{fill:none;stroke:#000000;stroke-width:27;stroke-miterlimit:10;}
	.st12{fill:#A3A3A3;}
	.st13{fill:#808080;}
	.st14{fill:#42210B;}
	.st15{fill:#603813;}
	.st16{fill:#4D4D4D;}
	.st17{fill:#666666;}
	.st18{fill:#333333;}
	.st19{stroke:#000000;stroke-miterlimit:10;}
</style>
<g class="card-frame">
	<path id="папка_00000026148320018541749420000013364384852626053271_" class="st0" d="M109.26,1228.52h598.85 c23.19,0,42-18.8,42-42V358.9c0-11.6-4.7-22.1-12.3-29.7c0,0-10.27-10.28-29.7-12.3c-23.39-2.43-284.37-2.44-640.85,0 c-6.88,2.71-19.03,8.58-30.1,20.64c-13.9,15.16-18.28,31.59-19.78,39.05c0,63.81,0,127.62,0,191.44c0.03,6.9,0.98,31.67,19.78,52.46 c10.8,11.94,23.01,17.62,30.1,20.25c0,181.93,0,363.85,0,545.78C67.27,1209.71,86.07,1228.52,109.26,1228.52z" />
	<path id="папка" class="st0" d="M1391.12,1228.27H792.27c-23.19,0-42-18.8-42-42V358.66c0-11.6,4.7-22.1,12.3-29.7 c0,0,10.27-10.28,29.7-12.3c23.39-2.43,284.37-2.44,640.85,0c6.88,2.71,19.03,8.58,30.1,20.64c13.9,15.16,18.28,31.59,19.78,39.05 c0,63.81,0,127.62,0,191.44c-0.03,6.9-0.98,31.67-19.78,52.46c-10.8,11.94-23.01,17.62-30.1,20.25c0,181.93,0,363.85,0,545.78 C1433.12,1209.47,1414.32,1228.27,1391.12,1228.27z" />
</g>
<g class="sheet-face">
	<rect id="лист_фон" x="143" y="399" class="st3" width="535" height="749" />
	<rect x="183" y="436" class="st9" width="181" height="245" />
	<rect x="389.95" y="442.72" class="st4" width="243.31" height="66.28" />
	<text transform="matrix(1 0 0 1.2 405.4468 500.3521)" class="st6 st7">МАФІЯ</text>
	<line class="st10" x1="388" y1="593" x2="628" y2="593" />
	<line class="st11" x1="388.5" y1="629.5" x2="628.5" y2="629.5" />
	<line class="st11" x1="388.5" y1="663.5" x2="628.5" y2="663.5" />
	<line class="st11" x1="218.5" y1="718.5" x2="629" y2="718.5" />
	<line class="st11" x1="479" y1="1104" x2="590" y2="1104" />
	<line class="st11" x1="178" y1="1002" x2="355.5" y2="1002" />
	<line class="st11" x1="177.5" y1="957.5" x2="628.5" y2="957.5" />
	<line class="st11" x1="628.5" y1="920.5" x2="177.5" y2="920.5" />
	<line class="st11" x1="177.5" y1="880.5" x2="628.5" y2="880.5" />
	<line class="st11" x1="628.5" y1="841.5" x2="177.5" y2="841.5" />
	<line class="st11" x1="177.5" y1="801.5" x2="628.5" y2="801.5" />
	<line class="st11" x1="628.5" y1="757.5" x2="177.5" y2="757.5" />
	<rect x="193" y="449.81" class="st12" width="161" height="197.38" />
	<path class="st19" d="M194.87,646.28c0-17.2,0-34.39,0-51.59c12.93-5.23,25.86-10.47,38.79-15.7c-4.31-5.23-8.62-10.47-12.93-15.7 c7.9-6.73,15.8-13.46,23.7-20.19c-1.47-2.55-2.97-5.54-4.31-8.97c-2.67-6.81-3.82-13.06-4.31-17.94c-2.87,0.08-7.57-0.17-12.93-2.24 c-5.09-1.97-8.67-4.79-10.77-6.73c2.68-2.15,6.26-4.61,10.77-6.73c5.84-2.74,11.16-3.94,15.08-4.49c1.54-9.06,4.3-23.12,8.62-35.89 c1.03-3.05,2.68-7.6,6.46-8.97c3.63-1.31,7.85,0.79,10.77,2.24c2.99,1.49,5.14,3.26,6.46,4.49c1.9-1.25,4.82-2.97,8.62-4.49 c4.5-1.79,7.61-3.03,10.77-2.24c4.06,1.01,6.52,4.92,8.62,8.97c2.95,5.7,7.69,16.49,10.77,33.65c3.37-0.44,7.81-0.67,12.93,0 c6.42,0.85,11.56,2.8,15.08,4.49c-2.26,2.97-6.42,7.61-12.93,11.22c-5.04,2.79-9.7,3.96-12.93,4.49c0.5,4.46,0.72,11.89-2.15,20.19 c-1.26,3.62-2.83,6.61-4.31,8.97c7.18,5.98,14.37,11.96,21.55,17.94c-3.59,5.98-7.18,11.96-10.77,17.94 c12.21,3.74,24.42,7.48,36.63,11.22l0.45,55.62C300.2,646.58,247.31,645.53,194.87,646.28z" />
</g>
<g class="hidden-content">
	<rect x="856" y="444" class="st4" width="463" height="74" />
	<g id="пістоль">
		<path class="st13" d="M1124.26,820.4c6.91,5.17,14.84,8.18,22.97,9.17c-10.38,9.79-26.57,10.78-38.07,2.17 c-9.17-6.85-14.9-17.3-15.72-28.71c-0.69-9.45,2.07-18.73,7.62-26.24c0.69,13.91,6.32,27.59,16.81,38.09 C1119.89,816.89,1122.04,818.75,1124.26,820.4z" />
		<path class="st14" d="M1078.17,951.16c1.82,1.82,2.83,4.25,2.83,6.83s-1,5.01-2.83,6.83c-1.82,1.82-4.25,2.83-6.83,2.83 c-2.57,0-5-1-6.83-2.83c-3.76-3.78-3.76-9.91,0-13.67c1.84-1.82,4.26-2.83,6.83-2.83C1073.92,948.33,1076.34,949.33,1078.17,951.16 z" />
		<path class="st15" d="M1154.4,1020.42c1.52,2.31,1.21,5.4-0.75,7.35l-41,41c-1.69,1.69-3.68,1.78-4.69,1.68s-2.94-0.56-4.28-2.54 L987.73,896.2c-1.56-2.31-1.26-5.43,0.7-7.39l42.81-42.81c1.41-1.42,3.01-1.71,4.12-1.71c0.22,0,0.43,0.01,0.6,0.03 c1.03,0.1,2.96,0.59,4.29,2.6L1154.4,1020.42z M1099.66,957.99c0-7.57-2.94-14.67-8.3-20.03c-2.67-2.68-5.79-4.75-9.17-6.16 c-3.4-1.41-7.06-2.14-10.85-2.14c-7.57,0-14.67,2.94-20.03,8.3c-11.04,11.04-11.04,29.01,0,40.05c5.35,5.35,12.46,8.3,20.03,8.3 c7.57,0,14.69-2.94,20.03-8.3C1096.72,972.66,1099.66,965.56,1099.66,957.99z" />
		<path class="st16" d="M1217.79,628.93l-42.36,42.36c-13.97,13.95-19.57,33.65-16.35,52.17c-15.98-3.22-33.1,1.42-45.55,13.87 l-21.86,21.85c-11.92,11.93-18.06,28.4-16.84,45.21c1.22,16.81,9.66,32.24,23.16,42.31c6.91,5.18,14.87,8.2,23.03,9.19l-0.52,0.5 c-15.93,15.93-18.53,41.19-6.2,60.04l69.48,106.12c1.87,2.86,1.48,6.7-0.95,9.12l-72.41,72.42c-2.1,2.1-4.54,2.21-5.81,2.1 c-1.26-0.11-3.65-0.67-5.33-3.13l-98.75-143.77c-14.36-20.92-38.01-32.63-62.3-32.63c-9.75,0-19.61,1.88-28.98,5.83 c-7.01,2.94-14.9,0.85-19.55-4.82l313.42-313.42L1217.79,628.93z M1166.84,1040.97c8.18-8.18,9.5-21.13,3.14-30.81l-114.14-173.49 c-4.08-6.19-10.62-10.16-17.99-10.91c-7.36-0.75-14.59,1.81-19.81,7.05l-42.81,42.79c-8.28,8.28-9.53,21.35-2.99,31.05 l115.95,171.7c4.11,6.09,10.67,9.98,17.97,10.68c0.79,0.09,1.58,0.11,2.37,0.11c6.46,0,12.68-2.54,17.3-7.18L1166.84,1040.97z" />
		<polygon class="st17" points="1307.66,526.64 1224.78,609.53 1216.28,601.03 1299.18,518.16 " />
		
			<rect x="1016.97" y="668.8" transform="matrix(0.7072 -0.707 0.707 0.7072 -165.845 946.2259)" class="st17" width="85.05" height="9.1" />
		<path class="st18" d="M1327.46,520.05c3.65,3.65,3.65,9.55,0,13.19l-89.49,89.49c1.51,1.71,2.35,3.89,2.35,6.19 c0,2.47-0.98,4.84-2.73,6.59l-48.97,48.97c-14.17,14.17-15.79,36.95-3.76,52.99l9.58,12.76c14.31,19.09,12.39,46.21-4.49,63.09 l-56.25,56.26c-9.72,9.72-11.31,25.11-3.79,36.61l69.47,106.12c6.69,10.22,5.28,23.9-3.36,32.54l-72.41,72.41 c-4.9,4.9-11.47,7.59-18.32,7.59c-0.79,0-1.59-0.04-2.4-0.11c-7.69-0.7-14.61-4.77-18.99-11.14l-98.75-143.77 c-15.15-22.05-44.04-30.52-68.69-20.16c-8.43,3.53-17.47,3.6-25.51,0.79c-5.2,4.72-11.76,7.12-18.35,7.12 c-6.99,0-13.98-2.66-19.29-7.98c-5.15-5.15-8-12-7.98-19.28c0-7.29,2.84-14.14,8-19.29c1.19-1.21,2.48-2.25,3.85-3.2l-1.92-3.5 c-12.45-22.61-8.38-51.16,9.88-69.42l2.47-2.47l-5.8-5.8c-3.65-3.65-3.65-9.55,0-13.19c3.65-3.65,9.56-3.65,13.21,0l5.79,5.8 l327.94-327.93c-0.67-0.4-1.32-0.88-1.9-1.45c-3.65-3.65-3.65-9.56,0-13.19l17.57-17.57c3.63-3.65,9.55-3.65,13.19,0 c0.57,0.57,1.05,1.22,1.45,1.89l13.25-13.25c1.74-1.75,4.12-2.74,6.59-2.74c2.47,0,4.85,0.99,6.6,2.74l45.45,45.45 c3.14,3.14,3.57,8,1.28,11.6L1327.46,520.05z M1224.78,609.53l82.88-82.89l-8.48-8.48l-82.89,82.88L1224.78,609.53z M973.76,817.17 l317.38-317.38l-32.26-32.26l-159.32,159.32l13.02,13.02c1.75,1.75,2.74,4.13,2.74,6.6c0,2.47-0.99,4.85-2.74,6.6l-73.33,73.33 c-1.82,1.82-4.21,2.73-6.6,2.73c-2.38,0-4.77-0.9-6.59-2.73l-13.04-13.04l-71.52,71.53L973.76,817.17z M1175.43,671.29l42.36-42.36 l-14.7-14.7L889.68,927.64c4.65,5.67,12.55,7.77,19.55,4.82c9.37-3.95,19.24-5.83,28.98-5.83c24.29,0,47.95,11.71,62.3,32.63 l98.75,143.77c1.68,2.45,4.06,3.01,5.33,3.13c1.28,0.11,3.72,0,5.81-2.1l72.41-72.42c2.43-2.41,2.81-6.26,0.95-9.12l-69.48-106.12 c-12.33-18.85-9.73-44.1,6.2-60.04l0.52-0.5c-8.15-0.99-16.12-4.01-23.03-9.19c-13.49-10.06-21.94-25.5-23.16-42.31 s4.92-33.28,16.84-45.21l21.86-21.85c12.45-12.45,29.57-17.08,45.55-13.87C1155.86,704.94,1161.46,685.24,1175.43,671.29z M1176.75,800.12c10.42-10.41,11.59-26.9,2.76-38.69l-8.99-11.99c-11.51-10.42-28.45-10.98-40.51-1.79 c-0.73,0.56-1.39,1.22-1.97,1.95c-12.23,15.48-11.05,38,3.04,52.08c1.36,1.36,2.83,2.64,4.35,3.78c5.27,3.95,11.53,5.89,17.76,5.89 c7.65,0,15.26-2.93,20.96-8.63L1176.75,800.12z M1147.23,829.58c-8.13-0.99-16.06-4.01-22.97-9.17c-2.23-1.65-4.38-3.52-6.39-5.53 c-10.49-10.49-16.12-24.18-16.81-38.09c-5.56,7.51-8.31,16.8-7.62,26.24c0.82,11.41,6.55,21.86,15.72,28.71 C1120.66,840.36,1136.85,839.37,1147.23,829.58z M1032.65,706.62l60.15-60.14l-6.43-6.43l-60.15,60.14L1032.65,706.62z M954.89,836.04l5.67-5.67l-32.26-32.26l-5.67,5.67L954.89,836.04z M936.03,854.9l5.67-5.67l-32.26-32.26l-5.67,5.67L936.03,854.9z M917.17,873.76l5.66-5.67l-32.26-32.26l-5.66,5.67L917.17,873.76z M880.1,910.82l23.86-23.86l-31.45-31.45 c-7.25,11.94-7.84,27.23-0.92,39.84L880.1,910.82z M866.49,936.41c2.21,2.21,5.31,2.93,8.15,2.24c-1.12-1.44-2.15-2.96-3.06-4.61 l-5.28-9.59c-1.51,1.59-2.33,3.68-2.33,5.87C863.98,932.62,864.87,934.79,866.49,936.41z" />
		<path class="st13" d="M1291.14,499.8L973.76,817.17l-32.26-32.26l71.52-71.53l13.04,13.04c1.82,1.82,4.21,2.73,6.59,2.73 c2.4,0,4.78-0.9,6.6-2.73l73.33-73.33c1.75-1.75,2.74-4.13,2.74-6.6c0-2.47-0.99-4.85-2.74-6.6l-13.02-13.02l159.32-159.32 L1291.14,499.8z" />
		<path class="st18" d="M1169.99,1010.16c6.36,9.68,5.04,22.62-3.14,30.81l-41,41c-4.62,4.64-10.84,7.18-17.3,7.18 c-0.79,0-1.58-0.03-2.37-0.11c-7.31-0.7-13.87-4.59-17.97-10.68l-115.95-171.7c-6.55-9.7-5.3-22.77,2.99-31.05l42.81-42.79 c5.23-5.24,12.45-7.8,19.81-7.05c7.36,0.75,13.91,4.72,17.99,10.91L1169.99,1010.16z M1153.65,1027.77 c1.95-1.95,2.27-5.04,0.75-7.35l-114.14-173.5c-1.34-2.01-3.26-2.5-4.29-2.6c-0.17-0.01-0.39-0.03-0.6-0.03 c-1.11,0-2.71,0.29-4.12,1.71l-42.81,42.81c-1.97,1.97-2.27,5.08-0.7,7.39l115.95,171.71c1.34,1.98,3.26,2.44,4.28,2.54 s3,0.01,4.69-1.68L1153.65,1027.77z" />
		<path class="st18" d="M1091.36,937.96c5.35,5.35,8.3,12.46,8.3,20.03c0,7.57-2.94,14.67-8.3,20.03c-5.34,5.35-12.46,8.3-20.03,8.3 c-7.57,0-14.67-2.94-20.03-8.3c-11.04-11.04-11.04-29.01,0-40.05c5.35-5.35,12.46-8.3,20.03-8.3c3.79,0,7.45,0.73,10.85,2.14 C1085.58,933.21,1088.69,935.28,1091.36,937.96z M1081,957.99c0-2.58-1-5.01-2.83-6.83s-4.25-2.83-6.83-2.83c-2.57,0-5,1-6.83,2.83 c-3.76,3.76-3.76,9.89,0,13.67c1.84,1.82,4.26,2.83,6.83,2.83c2.58,0,5.01-1,6.83-2.83C1079.99,963,1081,960.57,1081,957.99z" />
		
			<rect x="937.59" y="794.26" transform="matrix(0.7071 -0.7071 0.7071 0.7071 -301.9703 905.1235)" class="st13" width="8.02" height="45.62" />
		
			<rect x="918.72" y="813.13" transform="matrix(0.7071 -0.7071 0.7071 0.7071 -320.8337 897.3099)" class="st13" width="8.02" height="45.62" />
		<polygon class="st13" points="922.82,868.09 917.17,873.76 884.91,841.51 890.57,835.84 " />
		<path class="st13" d="M903.96,886.96l-23.86,23.86l-8.51-15.48c-6.92-12.6-6.33-27.89,0.92-39.84L903.96,886.96z" />
	</g>
</g>
<g class="card-clip">
	<path id="скріпка_00000143589353356188519100000005113382890122081408_" class="st2" d="M846.5,315.5 c-0.88-8.44,8.08-16.42,18.07-17c11.02-0.64,21.75,7.6,20.93,17c0,41.63,0.27,82.31,0.27,123.94c0.45,9.3-9.91,17.03-22.34,17.25 c-12.95,0.23-24.09-7.77-23.47-17.45c0-31.21,0-62.42,0-93.63" />
</g>
</svg>
