<?xml version="1.0" encoding="utf-8"?>
<!-- Generator: Adobe Illustrator 26.1.0, SVG Export Plug-In . SVG Version: 6.00 Build 0) -->
<svg version="1.1" id="role_doctor" xmlns="http://www.w3.org/2000/svg" xmlns:xlink="http://www.w3.org/1999/xlink" x="0px"
	 y="0px" viewBox="0 0 1500 1500" style="enable-background:new 0 0 1500 1500;" xml:space="preserve" xmlns:c2pa="http://c2pa.org/manifest"><metadata><c2pa:manifest>AAAWgmp1bWIAAAAeanVtZGMycGEAEQAQgAAAqgA4m3EDYzJwYQAAABZcanVtYgAAAEdqdW1kYzJtYQARABCAAACqADibcQN1cm46YzJwYToxNDZkMGI0Ni03ZGRiLTRmZjktOWQzZi1jOTk1MTA0YTVhN2UAAAADl2p1bWIAAAApanVtZGMyYXMAEQAQgAAAqgA4m3EDYzJwYS5hc3NlcnRpb25zAAAAALxqdW1iAAAARGp1bWRjYm9yABEAEIAAAKoAOJtxE2MycGEuaW5ncmVkaWVudC52MwAAAAAYYzJzaOoSWmilxmOiUqgmmVrjpCoAAABwY2JvcqNpZGM6Zm9ybWF0bWltYWdlL3N2Zyt4bWxqaW5zdGFuY2VJRHgseG1wOmlpZDpkNTUxNDY5MS1kODQ2LTRmMGYtYTQ0Ni0wOWZhYTdmZmJmNGFscmVsYXRpb25zaGlwaHBhcmVudE9mAAAB4mp1bWIAAABBanVtZGNib3IAEQAQgAAAqgA4m3ETYzJwYS5hY3Rpb25zLnYyAAAAABhjMnNoFfrX7ejniNuWGnl3yxbKDgAAAZljYm9yomdhY3Rpb25zgqJmYWN0aW9ua2MycGEub3BlbmVkanBhcmFtZXRlcnOha2luZ3JlZGllbnRzgaJjdXJseC1zZWxmI2p1bWJmPWMycGEuYXNzZXJ0aW9ucy9jMnBhLmluZ3JlZGllbnQudjNkaGFzaFggf+9uFhZcHKp5jED8bn027M8cQS67Z5wntrQnb6JmcemkZmFjdGlvbngdY29tLmFudGhyb3BpYy5jbGF1ZGUucHJvdmlkZWRqcGFyYW1ldGVyc6F4H2NvbS5hbnRocm9waWMub3JpZ2luLWNvbmZpZGVuY2VndW5rbm93bmtkZXNjcmlwdGlvbnhmQ2xhdWRlIHByb3ZpZGVkIHRoaXMgZmlsZSBhdCB0aGUgcmVxdWVzdCBvZiBhIHVzZXIgYW5kIG1heSBoYXZlIGNyZWF0ZWQgb3IgbW9kaWZpZWQgdGhlIGZpbGUgY29udGVudHMubXNvZnR3YXJlQWdlbnShZG5hbWVmQ2xhdWRlcmFsbEFjdGlvbnNJbmNsdWRlZPUAAADIanVtYgAAAEBqdW1kY2JvcgARABCAAACqADibcRNjMnBhLmhhc2guZGF0YQAAAAAYYzJzaMkYKIGB/aXVdbJuFroQ5kgAAACAY2JvcqVjYWxnZnNoYTI1NmNwYWRMAAAAAAAAAAAAAAAAZGhhc2hYIJ0erTDluqRUmXOJhn7SkNCfzPuKuiP72dHuCe/7kBXvZG5hbWVuanVtYmYgbWFuaWZlc3RqZXhjbHVzaW9uc4GiZXN0YXJ0GQGiZmxlbmd0aBkeBAAAAj5qdW1iAAAAJ2p1bWRjMmNsABEAEIAAAKoAOJtxA2MycGEuY2xhaW0udjIAAAACD2Nib3KlY2FsZ2ZzaGEyNTZpc2lnbmF0dXJleE1zZWxmI2p1bWJmPS9jMnBhL3VybjpjMnBhOjE0NmQwYjQ2LTdkZGItNGZmOS05ZDNmLWM5OTUxMDRhNWE3ZS9jMnBhLnNpZ25hdHVyZWppbnN0YW5jZUlEeCx4bXA6aWlkOjU2MDQ0MTM1LWU1MTctNDcxMy1hZDVkLWZiZjE5NTQ5OTcyN3JjcmVhdGVkX2Fzc2VydGlvbnODomN1cmx4LXNlbGYjanVtYmY9YzJwYS5hc3NlcnRpb25zL2MycGEuaW5ncmVkaWVudC52M2RoYXNoWCB/724WFlwcqnmMQPxufTbszxxBLrtnnCe2tCdvomZx6aJjdXJseCpzZWxmI2p1bWJmPWMycGEuYXNzZXJ0aW9ucy9jMnBhLmFjdGlvbnMudjJkaGFzaFgga+g+sFfcCAIJEQBxQ12TS8BDNHw+j3aqtdSr8JWWw6GiY3VybHgpc2VsZiNqdW1iZj1jMnBhLmFzc2VydGlvbnMvYzJwYS5oYXNoLmRhdGFkaGFzaFgg0UtDvbRJMu5RwsENQCVGgbw/UsoLOyzwJwjDRas3DB10Y2xhaW1fZ2VuZXJhdG9yX2luZm+jZG5hbWVvQW50aHJvcGljIEZpbGVzZ3ZlcnNpb25lMS4wLjBrc3BlY1ZlcnNpb25lMi40LjAAABA4anVtYgAAAChqdW1kYzJjcwARABCAAACqADibcQNjMnBhLnNpZ25hdHVyZQAAABAIY2JvctKEWQISogEmGCFZAgowggIGMIIBjaADAgECAhRA5aAK7sI50L64g/oGQgU9Z1UTADAKBggqhkjOPQQDAzBJMRcwFQYDVQQKEw5BbnRocm9waWMsIFBCQzEuMCwGA1UEAxMlQW50aHJvcGljIENvbnRlbnQgQ3JlZGVudGlhbHMgUm9vdCBDQTAeFw0yNjA4MDcxODQzNTZaFw0yODA4MDYxOTQzNTZaMEQxFzAVBgNVBAoTDkFudGhyb3BpYywgUEJDMSkwJwYDVQQDEyBBbnRocm9waWMgQ2xhdWRlIENvbnRlbnQgU2lnbmluZzBZMBMGByqGSM49AgEGCCqGSM49AwEHA0IABJh6CmvLUBgFFNU0vUKlOVtE6djd17L5SuwX0LemFisBM3dkd/3cyjxFA3Qo5S46fX0/ihY0VZ7mfb9KF703t5OjWDBWMA4GA1UdDwEB/wQEAwIHgDAVBgNVHSUEDjAMBgorBgEEAYPoXgIBMAwGA1UdEwEB/wQCMAAwHwYDVR0jBBgwFoAUzlHiBIFOZFsj+OPEz5o+nMHXXMIwCgYIKoZIzj0EAwMDZwAwZAIwMXMdFJ4BetLLVY7ORuE9noqbbAZOZn/aArXyTwFAZfKrPzxF2vPoJNf1+UCdg1XGAjBwX1zd9WGqYkqmL5SFqw1QySjr1zJfpJM9+1rdDwSPLMOPOjKuiXjoU/pUUeG9RwmhY3BhZFkNngAAAAAAAAAAAAAAAAAAAAAAAAAAAAAAAAAAAAAAAAAAAAAAAAAAAAAAAAAAAAAAAAAAAAAAAAAAAAAAAAAAAAAAAAAAAAAAAAAAAAAAAAAAAAAAAAAAAAAAAAAAAAAAAAAAAAAAAAAAAAAAAAAAAAAAAAAAAAAAAAAAAAAAAAAAAAAAAAAAAAAAAAAAAAAAAAAAAAAAAAAAAAAAAAAAAAAAAAAAAAAAAAAAAAAAAAAAAAAAAAAAAAAAAAAAAAAAAAAAAAAAAAAAAAAAAAAAAAAAAAAAAAAAAAAAAAAAAAAAAAAAAAAAAAAAAAAAAAAAAAAAAAAAAAAAAAAAAAAAAAAAAAAAAAAAAAAAAAAAAAAAAAAAAAAAAAAAAAAAAAAAAAAAAAAAAAAAAAAAAAAAAAAAAAAAAAAAAAAAAAAAAAAAAAAAAAAAAAAAAAAAAAAAAAAAAAAAAAAAAAAAAAAAAAAAAAAAAAAAAAAAAAAAAAAAAAAAAAAAAAAAAAAAAAAAAAAAAAAAAAAAAAAAAAAAAAAAAAAAAAAAAAAAAAAAAAAAAAAAAAAAAAAAAAAAAAAAAAAAAAAAAAAAAAAAAAAAAAAAAAAAAAAAAAAAAAAAAAAAAAAAAAAAAAAAAAAAAAAAAAAAAAAAAAAAAAAAAAAAAAAAAAAAAAAAAAAAAAAAAAAAAAAAAAAAAAAAAAAAAAAAAAAAAAAAAAAAAAAAAAAAAAAAAAAAAAAAAAAAAAAAAAAAAAAAAAAAAAAAAAAAAAAAAAAAAAAAAAAAAAAAAAAAAAAAAAAAAAAAAAAAAAAAAAAAAAAAAAAAAAAAAAAAAAAAAAAAAAAAAAAAAAAAAAAAAAAAAAAAAAAAAAAAAAAAAAAAAAAAAAAAAAAAAAAAAAAAAAAAAAAAAAAAAAAAAAAAAAAAAAAAAAAAAAAAAAAAAAAAAAAAAAAAAAAAAAAAAAAAAAAAAAAAAAAAAAAAAAAAAAAAAAAAAAAAAAAAAAAAAAAAAAAAAAAAAAAAAAAAAAAAAAAAAAAAAAAAAAAAAAAAAAAAAAAAAAAAAAAAAAAAAAAAAAAAAAAAAAAAAAAAAAAAAAAAAAAAAAAAAAAAAAAAAAAAAAAAAAAAAAAAAAAAAAAAAAAAAAAAAAAAAAAAAAAAAAAAAAAAAAAAAAAAAAAAAAAAAAAAAAAAAAAAAAAAAAAAAAAAAAAAAAAAAAAAAAAAAAAAAAAAAAAAAAAAAAAAAAAAAAAAAAAAAAAAAAAAAAAAAAAAAAAAAAAAAAAAAAAAAAAAAAAAAAAAAAAAAAAAAAAAAAAAAAAAAAAAAAAAAAAAAAAAAAAAAAAAAAAAAAAAAAAAAAAAAAAAAAAAAAAAAAAAAAAAAAAAAAAAAAAAAAAAAAAAAAAAAAAAAAAAAAAAAAAAAAAAAAAAAAAAAAAAAAAAAAAAAAAAAAAAAAAAAAAAAAAAAAAAAAAAAAAAAAAAAAAAAAAAAAAAAAAAAAAAAAAAAAAAAAAAAAAAAAAAAAAAAAAAAAAAAAAAAAAAAAAAAAAAAAAAAAAAAAAAAAAAAAAAAAAAAAAAAAAAAAAAAAAAAAAAAAAAAAAAAAAAAAAAAAAAAAAAAAAAAAAAAAAAAAAAAAAAAAAAAAAAAAAAAAAAAAAAAAAAAAAAAAAAAAAAAAAAAAAAAAAAAAAAAAAAAAAAAAAAAAAAAAAAAAAAAAAAAAAAAAAAAAAAAAAAAAAAAAAAAAAAAAAAAAAAAAAAAAAAAAAAAAAAAAAAAAAAAAAAAAAAAAAAAAAAAAAAAAAAAAAAAAAAAAAAAAAAAAAAAAAAAAAAAAAAAAAAAAAAAAAAAAAAAAAAAAAAAAAAAAAAAAAAAAAAAAAAAAAAAAAAAAAAAAAAAAAAAAAAAAAAAAAAAAAAAAAAAAAAAAAAAAAAAAAAAAAAAAAAAAAAAAAAAAAAAAAAAAAAAAAAAAAAAAAAAAAAAAAAAAAAAAAAAAAAAAAAAAAAAAAAAAAAAAAAAAAAAAAAAAAAAAAAAAAAAAAAAAAAAAAAAAAAAAAAAAAAAAAAAAAAAAAAAAAAAAAAAAAAAAAAAAAAAAAAAAAAAAAAAAAAAAAAAAAAAAAAAAAAAAAAAAAAAAAAAAAAAAAAAAAAAAAAAAAAAAAAAAAAAAAAAAAAAAAAAAAAAAAAAAAAAAAAAAAAAAAAAAAAAAAAAAAAAAAAAAAAAAAAAAAAAAAAAAAAAAAAAAAAAAAAAAAAAAAAAAAAAAAAAAAAAAAAAAAAAAAAAAAAAAAAAAAAAAAAAAAAAAAAAAAAAAAAAAAAAAAAAAAAAAAAAAAAAAAAAAAAAAAAAAAAAAAAAAAAAAAAAAAAAAAAAAAAAAAAAAAAAAAAAAAAAAAAAAAAAAAAAAAAAAAAAAAAAAAAAAAAAAAAAAAAAAAAAAAAAAAAAAAAAAAAAAAAAAAAAAAAAAAAAAAAAAAAAAAAAAAAAAAAAAAAAAAAAAAAAAAAAAAAAAAAAAAAAAAAAAAAAAAAAAAAAAAAAAAAAAAAAAAAAAAAAAAAAAAAAAAAAAAAAAAAAAAAAAAAAAAAAAAAAAAAAAAAAAAAAAAAAAAAAAAAAAAAAAAAAAAAAAAAAAAAAAAAAAAAAAAAAAAAAAAAAAAAAAAAAAAAAAAAAAAAAAAAAAAAAAAAAAAAAAAAAAAAAAAAAAAAAAAAAAAAAAAAAAAAAAAAAAAAAAAAAAAAAAAAAAAAAAAAAAAAAAAAAAAAAAAAAAAAAAAAAAAAAAAAAAAAAAAAAAAAAAAAAAAAAAAAAAAAAAAAAAAAAAAAAAAAAAAAAAAAAAAAAAAAAAAAAAAAAAAAAAAAAAAAAAAAAAAAAAAAAAAAAAAAAAAAAAAAAAAAAAAAAAAAAAAAAAAAAAAAAAAAAAAAAAAAAAAAAAAAAAAAAAAAAAAAAAAAAAAAAAAAAAAAAAAAAAAAAAAAAAAAAAAAAAAAAAAAAAAAAAAAAAAAAAAAAAAAAAAAAAAAAAAAAAAAAAAAAAAAAAAAAAAAAAAAAAAAAAAAAAAAAAAAAAAAAAAAAAAAAAAAAAAAAAAAAAAAAAAAAAAAAAAAAAAAAAAAAAAAAAAAAAAAAAAAAAAAAAAAAAAAAAAAAAAAAAAAAAAAAAAAAAAAAAAAAAAAAAAAAAAAAAAAAAAAAAAAAAAAAAAAAAAAAAAAAAAAAAAAAAAAAAAAAAAAAAAAAAAAAAAAAAAAAAAAAAAAAAAAAAAAAAAAAAAAAAAAAAAAAAAAAAAAAAAAAAAAAAAAAAAAAAAAAAAAAAAAAAAAAAAAAAAAAAAAAAAAAAAAAAAAAAAAAAAAAAAAAAAAAAAAAAAAAAAAAAAAAAAAAAAAAAAAAAAAAAAAAAAAAAAAAAAAAAAAAAAAAAAAAAAAAAAAAAAAAAAAAAAAAAAAAAAAAAAAAAAAAAAAAAAAAAAAAAAAAAAAAAAAAAAAAAAAAAAAAAAAAAAAAAAAAAAAAAAAAAAAAAAAAAAAAAAAAAAAAAAAAAAAAAAAAAAAAAAAAAAAAAAAAAAAAAAAAAAAAAAAAAAAAAAAAAAAAAAAAAAAAAAAAAAAAAAAAAAAAAAAAAAAAAAAAAAAAAAAAAAAAAAAAAAAAAAAAAAAAAAAAAAAAAAAAAAAAAAAAAAAAAAAAAAAAAAAAAAAAAAAAAAAAAAAAAAAAAAAAAAAAAAAAAAAAAAAAAAAAAAAAAAAAAAAAAAAAAAAAAAAAAAAAAAAAAAAAAAAAAAAAAAAAAAAAAAAAAAAAAAAAAAAAAAAAAAAAAAAAAAAAAAAAAAAAAAAAAAAAAAAAAAAAAAAAAAAAAAAAAAAAAAAAAAAAAAAAAAAAAAAAAAAAAAAAAAAAAAAAAAAAAAAAAAAAAAAAAAAAAAAAAAAAAAAAAAAAAAAAAAAAAAAAAAAAAAAAAAAAAAAAAAAAAAAAAAAAAAAAAAAAAAAAAAAAAAAAAAAAAAAAAAAAAAAAAAAAAAAAAAAAAAAAAAAAAAAAAAAAAAAAAAAAAAAAAAAAAAAAAAAAAAAAAAAAAAAAAAAAAAAAAAAAAAAAAAAAAAAAAAAAAAAAAAAAAAAAAAAAAAAAAAAAAAAAAAAAAAAAAAAAAAAAAAAAAAAAAAAAAAAAAAAAAAAAAAAAAAAAAAAAAAAAAAAAAAAAAAAAAAAAAAAAAAAAAAAAAAAAAAAAAAAAAAAAAAAAAAAAAAAAAAAAAAAAAAAAAAAAAAAAAAAAAAAAAAAAAAAAAAAAAAAAAAAAAAAAAAAAAAAAAAAAAAAAAAAAAAAAAAAAAAAAAAAAAAAAAAAAAAAAAAAAAAAAAAAAAAAAAAAAAAAAAAAAAAAAAAAAAAAAAAAAAAAAAAAAAAAAAAAAAAAAAAAAAAAAAAAAAAAAAAAAAAAAAAAAAAAAAAAAAAAAAAAAAAAAAAAAAAAAAAAAAAAAAAAAAAAAAAAAAAAAAAAAAAAAAAAAAAAAAAAAAAAAAAAAAAAAAAAAAAAAAAAAAAAAAAAAAAAAAAAAAAAAAAAAAAAAAAAAAAAAAAAAAAAAAAAAAAAAAAAAAAAAAAAAAAAAAAAAAAAAAAAAAAAAAAAAAAAAAAAAAAAAAAAAAAAAAAAAAAAAAAAAAAAAAAAAAAAAAAAAAAAAAAAAAAAAPZYQMVHMt72rrBYj2eEHseVzdyjouJU1P/HroDi2LJM8LIoegjW95z/ynnYJD9mK03A/z29FpKjVV7If2Up66we6hk=</c2pa:manifest></metadata>
<style type="text/css">
	.st0{fill:#E5CFAE;stroke:#000000;stroke-width:2;stroke-miterlimit:10;}
	.st1{fill:none;stroke:#000000;stroke-width:3;stroke-linejoin:round;stroke-miterlimit:10;}
	.st2{fill:#FFFFEF;}
	.st3{fill:none;}
	.st4{font-family:'Candara';}
	.st5{font-size:71px;}
	.st6{stroke:#000000;stroke-width:27;stroke-miterlimit:10;}
	.st7{fill:none;stroke:#000000;stroke-width:27;stroke-miterlimit:10;}
	.st8{fill:none;stroke:#FF0000;stroke-width:20;stroke-linecap:round;stroke-miterlimit:10;}
</style>
<g class="card-frame">
	<path id="папка_00000026148320018541749420000013364384852626053271_" class="st0" d="M109.26,1228.52h598.85 c23.19,0,42-18.8,42-42V358.9c0-11.6-4.7-22.1-12.3-29.7c0,0-10.27-10.28-29.7-12.3c-23.39-2.43-284.37-2.44-640.85,0 c-6.88,2.71-19.03,8.58-30.1,20.64c-13.9,15.16-18.28,31.59-19.78,39.05c0,63.81,0,127.62,0,191.44c0.03,6.9,0.98,31.67,19.78,52.46 c10.8,11.94,23.01,17.62,30.1,20.25c0,181.93,0,363.85,0,545.78C67.27,1209.71,86.07,1228.52,109.26,1228.52z" />
	<path id="папка" class="st0" d="M1391.12,1228.27H792.27c-23.19,0-42-18.8-42-42V358.66c0-11.6,4.7-22.1,12.3-29.7 c0,0,10.27-10.28,29.7-12.3c23.39-2.43,284.37-2.44,640.85,0c6.88,2.71,19.03,8.58,30.1,20.64c13.9,15.16,18.28,31.59,19.78,39.05 c0,63.81,0,127.62,0,191.44c-0.03,6.9-0.98,31.67-19.78,52.46c-10.8,11.94-23.01,17.62-30.1,20.25c0,181.93,0,363.85,0,545.78 C1433.12,1209.47,1414.32,1228.27,1391.12,1228.27z" />
</g>
<g class="sheet-face">
	<rect id="лист_фон" x="143" y="399" class="st2" width="535" height="749" />
	<rect x="389.95" y="442.72" class="st3" width="243.31" height="66.28" />
	<text transform="matrix(1 0 0 1.2 418.3262 508.9502)" class="st4 st5">ЛІКАР</text>
	<line class="st6" x1="388" y1="593" x2="628" y2="593" />
	<line class="st7" x1="388.5" y1="629.5" x2="628.5" y2="629.5" />
	<line class="st7" x1="388.5" y1="663.5" x2="628.5" y2="663.5" />
	<line class="st7" x1="218.5" y1="718.5" x2="629" y2="718.5" />
	<line class="st7" x1="479" y1="1104" x2="590" y2="1104" />
	<line class="st7" x1="178" y1="1002" x2="355.5" y2="1002" />
	<line class="st7" x1="177.5" y1="957.5" x2="628.5" y2="957.5" />
	<line class="st7" x1="628.5" y1="920.5" x2="177.5" y2="920.5" />
	<line class="st7" x1="177.5" y1="880.5" x2="628.5" y2="880.5" />
	<line class="st7" x1="628.5" y1="841.5" x2="177.5" y2="841.5" />
	<line class="st7" x1="177.5" y1="801.5" x2="628.5" y2="801.5" />
	<line class="st7" x1="628.5" y1="757.5" x2="177.5" y2="757.5" />
	<line class="st8" x1="269" y1="463" x2="269" y2="633" />
	<line class="st8" x1="184" y1="548" x2="354" y2="548" />
</g>
<g class="hidden-content">
	<path id="Path_192" d="M1307.73,917.54l-81.13-63.29l26.74-34.27c2.95-3.79,1.31-10-3.67-13.89l-90.14-70.33 c-4.98-3.88-11.41-3.96-14.36-0.18l-26.74,34.27l-81.13-63.29c-4.98-3.88-11.41-3.96-14.36-0.18L894.6,870.89 c-2.95,3.79-1.31,10,3.67,13.89l270.42,210.98c4.98,3.88,11.41,3.96,14.36,0.18l128.35-164.52 C1314.35,927.64,1312.71,921.42,1307.73,917.54z M1136.47,783.92l21.39-27.42l72.11,56.26l-21.39,27.42 c-11.81,15.14-37.53,14.82-57.45-0.71S1124.65,799.06,1136.47,783.92z M1170.37,1075.02L917.97,878.1l117.66-150.81l75.43,58.85 c-5.16,22.31,6.59,49.14,29.37,67.03c22.89,17.75,51.77,22.62,72.16,12.19l75.43,58.85L1170.37,1075.02z M1110.03,873.56 c11.81-15.14,5.25-40.01-14.66-55.55s-45.63-15.85-57.45-0.71c-11.81,15.14-5.25,40.01,14.66,55.55 C1072.49,888.39,1098.21,888.7,1110.03,873.56z M1063.28,859.14c-9.96-7.77-13.24-20.2-7.33-27.77c5.91-7.57,18.77-7.41,28.72,0.36 c9.96,7.77,13.24,20.2,7.33,27.77C1086.09,867.07,1073.23,866.91,1063.28,859.14z M1070.61,886.92l-36.06-28.13 c-24.89-19.42-57.04-19.82-71.81-0.89c-8.86,11.36-3.94,30.01,11,41.66l72.11,56.26c14.93,11.65,34.23,11.89,43.09,0.53 C1103.71,937.42,1095.5,906.34,1070.61,886.92z M1056.55,942.11l-72.11-56.26c-4.98-3.88-6.62-10.1-3.67-13.89 c8.86-11.36,28.15-11.12,43.09,0.53l36.06,28.13c14.93,11.65,19.86,30.3,11,41.66C1067.96,946.07,1061.53,945.99,1056.55,942.11z M1228.89,944.24c4.98,3.88,6.62,10.1,3.67,13.89c-2.95,3.79-9.38,3.71-14.36-0.18l-72.11-56.26c-4.98-3.88-6.62-10.1-3.67-13.89 c2.95-3.79,9.38-3.71,14.36,0.18L1228.89,944.24z M1200.47,999.26c-2.95,3.79-9.38,3.71-14.36-0.18l-54.08-42.2 c-4.98-3.88-6.62-10.1-3.67-13.89c2.95-3.79,9.38-3.71,14.36,0.18l54.08,42.2C1201.78,989.26,1203.42,995.47,1200.47,999.26z M1168.38,1040.39c-2.95,3.79-9.38,3.71-14.36-0.18l-54.08-42.2c-4.98-3.88-6.62-10.1-3.67-13.89c2.95-3.79,9.38-3.71,14.36,0.18 l54.08,42.2C1169.69,1030.38,1171.34,1036.6,1168.38,1040.39z" />
</g>
<g class="card-clip">
	<path id="скріпка_00000143589353356188519100000005113382890122081408_" class="st1" d="M846.5,315.5 c-0.88-8.44,8.08-16.42,18.07-17c11.02-0.64,21.75,7.6,20.93,17c0,41.63,0.27,82.31,0.27,123.94c0.45,9.3-9.91,17.03-22.34,17.25 c-12.95,0.23-24.09-7.77-23.47-17.45c0-31.21,0-62.42,0-93.63" />
</g>
</svg>
